<?xml version="1.0" encoding="utf-8"?>

<svg xmlns="http://www.w3.org/2000/svg" width="113" height="113" viewBox="0 0 113 113" fill="none">
  <g clip-path="url(#clip0_243_134)">
    <path d="M100.5 7H12.4995C9.46197 7 6.99953 9.46244 6.99953 12.5V100.5C6.99953 103.538 9.46197 106 12.4995 106H100.5C103.537 106 106 103.538 106 100.5V12.5C106 9.46244 103.537 7 100.5 7Z" fill="#2CA9BC"/>
    <path d="M28.9996 40L34.4996 45.5001L45.4996 34.5" stroke="#394240" stroke-width="13.5473" stroke-linecap="round" stroke-linejoin="round"/>
    <path d="M28.9996 73.0001L34.4996 78.5001L45.4996 67.5001" stroke="#394240" stroke-width="13.5473" stroke-linecap="round" stroke-linejoin="round"/>
    <path d="M83.9997 40.0001H67.4996M83.9997 73.0001H67.4996M100.5 7H12.4995C11.0408 7 9.64189 7.57946 8.61044 8.61092C7.57899 9.64237 6.99953 11.0413 6.99953 12.5V100.5C6.99953 101.959 7.57899 103.358 8.61044 104.389C9.64189 105.421 11.0408 106 12.4995 106H100.5C101.958 106 103.357 105.421 104.389 104.389C105.42 103.358 106 101.959 106 100.5V12.5C106 11.0413 105.42 9.64237 104.389 8.61092C103.357 7.57946 101.958 7 100.5 7Z" stroke="#394240" stroke-width="13.5473" stroke-linecap="round" stroke-linejoin="round"/>
  </g>
  <defs>
    <clipPath id="clip0_243_134">
      <rect width="113" height="113" fill="white"/>
    </clipPath>
  </defs>
</svg>