<svg width="42" height="68" viewBox="0 0 42 68" fill="none" xmlns="http://www.w3.org/2000/svg">
<mask id="path-1-outside-1_88_888" maskUnits="userSpaceOnUse" x="0" y="0.977539" width="42" height="67" fill="black">
<rect fill="white" y="0.977539" width="42" height="67"/>
<path d="M39 22.0483C39.0026 18.9986 38.235 15.998 36.7689 13.3263C35.3028 10.6547 33.1859 8.39902 30.6158 6.76984C28.0457 5.14067 25.1061 4.19103 22.0712 4.00954C19.0363 3.82806 16.005 4.42063 13.2601 5.73198C10.5152 7.04332 8.1462 9.03072 6.37405 11.5087C4.6019 13.9868 3.48437 16.8747 3.1257 19.9031C2.76703 22.9314 3.17892 26.0016 4.32294 28.8272C5.46696 31.6527 7.30584 34.1415 9.66801 36.0615C15.6216 41.7221 19.6 49.1551 21.0146 57.2603L21.0583 57.3261V57.2603C22.5122 48.9448 26.6591 41.3422 32.8567 35.6302C34.789 33.9383 36.3372 31.8505 37.3969 29.5076C38.4567 27.1647 39.0033 24.6211 39 22.0483ZM30.2988 31.9679C28.8197 31.916 27.3779 31.4884 26.1085 30.7252C24.6502 29.866 22.9969 29.3954 21.3061 29.3582H20.9781C19.2183 29.3409 17.4872 29.806 15.9717 30.7033C14.6841 31.4889 13.2149 31.9248 11.7085 31.9679V30.3963C12.9709 30.3584 14.2006 29.985 15.2721 29.3144C17.0161 28.2948 19.0034 27.7693 21.0219 27.7939H21.3134C24.8769 27.655 27.7263 25.1039 27.7263 21.9898C27.7263 19.7969 26.0575 18.1375 24.2939 16.3758C23.0019 15.213 21.8936 13.8598 21.0073 12.3626C20.1189 13.8817 18.9975 15.2508 17.6842 16.4197C15.9279 18.1667 14.2664 19.8188 14.2664 21.9898C14.2663 22.7142 14.423 23.43 14.7255 24.0878L13.268 24.7311C12.8822 23.8688 12.6811 22.9349 12.6777 21.9898C12.6777 19.1609 14.6526 17.2018 16.5547 15.3085C18.4567 13.4153 20.1984 11.6974 20.1984 9.21937H21.7579C21.7579 11.6536 23.5142 13.408 25.4016 15.2647C27.2891 17.1214 29.2931 19.1536 29.2931 21.9898C29.2558 23.3675 28.831 24.7066 28.0677 25.8525C27.3043 26.9985 26.2336 27.9046 24.9789 28.4664C25.6197 28.7166 26.2451 29.0047 26.8518 29.329C27.9031 29.9832 29.1062 30.3511 30.3425 30.3963L30.2988 31.9679Z"/>
</mask>
<path d="M39 22.0483C39.0026 18.9986 38.235 15.998 36.7689 13.3263C35.3028 10.6547 33.1859 8.39902 30.6158 6.76984C28.0457 5.14067 25.1061 4.19103 22.0712 4.00954C19.0363 3.82806 16.005 4.42063 13.2601 5.73198C10.5152 7.04332 8.1462 9.03072 6.37405 11.5087C4.6019 13.9868 3.48437 16.8747 3.1257 19.9031C2.76703 22.9314 3.17892 26.0016 4.32294 28.8272C5.46696 31.6527 7.30584 34.1415 9.66801 36.0615C15.6216 41.7221 19.6 49.1551 21.0146 57.2603L21.0583 57.3261V57.2603C22.5122 48.9448 26.6591 41.3422 32.8567 35.6302C34.789 33.9383 36.3372 31.8505 37.3969 29.5076C38.4567 27.1647 39.0033 24.6211 39 22.0483ZM30.2988 31.9679C28.8197 31.916 27.3779 31.4884 26.1085 30.7252C24.6502 29.866 22.9969 29.3954 21.3061 29.3582H20.9781C19.2183 29.3409 17.4872 29.806 15.9717 30.7033C14.6841 31.4889 13.2149 31.9248 11.7085 31.9679V30.3963C12.9709 30.3584 14.2006 29.985 15.2721 29.3144C17.0161 28.2948 19.0034 27.7693 21.0219 27.7939H21.3134C24.8769 27.655 27.7263 25.1039 27.7263 21.9898C27.7263 19.7969 26.0575 18.1375 24.2939 16.3758C23.0019 15.213 21.8936 13.8598 21.0073 12.3626C20.1189 13.8817 18.9975 15.2508 17.6842 16.4197C15.9279 18.1667 14.2664 19.8188 14.2664 21.9898C14.2663 22.7142 14.423 23.43 14.7255 24.0878L13.268 24.7311C12.8822 23.8688 12.6811 22.9349 12.6777 21.9898C12.6777 19.1609 14.6526 17.2018 16.5547 15.3085C18.4567 13.4153 20.1984 11.6974 20.1984 9.21937H21.7579C21.7579 11.6536 23.5142 13.408 25.4016 15.2647C27.2891 17.1214 29.2931 19.1536 29.2931 21.9898C29.2558 23.3675 28.831 24.7066 28.0677 25.8525C27.3043 26.9985 26.2336 27.9046 24.9789 28.4664C25.6197 28.7166 26.2451 29.0047 26.8518 29.329C27.9031 29.9832 29.1062 30.3511 30.3425 30.3963L30.2988 31.9679Z" fill="#EAC648"/>
<path d="M39 22.0483C39.0026 18.9986 38.235 15.998 36.7689 13.3263C35.3028 10.6547 33.1859 8.39902 30.6158 6.76984C28.0457 5.14067 25.1061 4.19103 22.0712 4.00954C19.0363 3.82806 16.005 4.42063 13.2601 5.73198C10.5152 7.04332 8.1462 9.03072 6.37405 11.5087C4.6019 13.9868 3.48437 16.8747 3.1257 19.9031C2.76703 22.9314 3.17892 26.0016 4.32294 28.8272C5.46696 31.6527 7.30584 34.1415 9.66801 36.0615C15.6216 41.7221 19.6 49.1551 21.0146 57.2603L21.0583 57.3261V57.2603C22.5122 48.9448 26.6591 41.3422 32.8567 35.6302C34.789 33.9383 36.3372 31.8505 37.3969 29.5076C38.4567 27.1647 39.0033 24.6211 39 22.0483ZM30.2988 31.9679C28.8197 31.916 27.3779 31.4884 26.1085 30.7252C24.6502 29.866 22.9969 29.3954 21.3061 29.3582H20.9781C19.2183 29.3409 17.4872 29.806 15.9717 30.7033C14.6841 31.4889 13.2149 31.9248 11.7085 31.9679V30.3963C12.9709 30.3584 14.2006 29.985 15.2721 29.3144C17.0161 28.2948 19.0034 27.7693 21.0219 27.7939H21.3134C24.8769 27.655 27.7263 25.1039 27.7263 21.9898C27.7263 19.7969 26.0575 18.1375 24.2939 16.3758C23.0019 15.213 21.8936 13.8598 21.0073 12.3626C20.1189 13.8817 18.9975 15.2508 17.6842 16.4197C15.9279 18.1667 14.2664 19.8188 14.2664 21.9898C14.2663 22.7142 14.423 23.43 14.7255 24.0878L13.268 24.7311C12.8822 23.8688 12.6811 22.9349 12.6777 21.9898C12.6777 19.1609 14.6526 17.2018 16.5547 15.3085C18.4567 13.4153 20.1984 11.6974 20.1984 9.21937H21.7579C21.7579 11.6536 23.5142 13.408 25.4016 15.2647C27.2891 17.1214 29.2931 19.1536 29.2931 21.9898C29.2558 23.3675 28.831 24.7066 28.0677 25.8525C27.3043 26.9985 26.2336 27.9046 24.9789 28.4664C25.6197 28.7166 26.2451 29.0047 26.8518 29.329C27.9031 29.9832 29.1062 30.3511 30.3425 30.3963L30.2988 31.9679Z" stroke="white" stroke-width="6" mask="url(#path-1-outside-1_88_888)"/>
</svg>
