<?xml version="1.0" encoding="utf-8"?>

<svg xmlns="http://www.w3.org/2000/svg" width="113" height="113" viewBox="0 0 113 113" fill="none">
  <g clip-path="url(#clip0_243_115)">
    <path d="M96.8571 14.125H16.1429V98.875H96.8571V14.125Z" fill="#F6E292"/>
    <path d="M104.929 0H8.07143C3.60995 0 0 3.1587 0 7.0625V105.938C0 109.841 3.60995 113 8.07143 113H104.929C109.39 113 113 109.841 113 105.938V7.0625C113 3.1587 109.39 0 104.929 0ZM96.8571 98.875H16.1429V14.125H96.8571V98.875Z" fill="#394240"/>
    <path d="M40.3571 77.6875H72.6428C77.1043 77.6875 80.7143 74.5288 80.7143 70.625C80.7143 66.7212 77.1043 63.5625 72.6428 63.5625H40.3571C35.8957 63.5625 32.2857 66.7212 32.2857 70.625C32.2857 74.5288 35.8957 77.6875 40.3571 77.6875Z" fill="#394240"/>
    <path d="M40.3571 49.4375H56.5C60.9615 49.4375 64.5714 46.2788 64.5714 42.375C64.5714 38.4712 60.9615 35.3125 56.5 35.3125H40.3571C35.8957 35.3125 32.2857 38.4712 32.2857 42.375C32.2857 46.2788 35.8957 49.4375 40.3571 49.4375Z" fill="#394240"/>
  </g>
  <defs>
    <clipPath id="clip0_243_115">
      <rect width="113" height="113" fill="white"/>
    </clipPath>
  </defs>
</svg>